PathFileType	4	(X/Y/Z)	pose_F01_0-96.trc
DataRate	CameraRate	NumFrames	NumMarkers	Units	OrigDataRate	OrigDataStartFrame	OrigNumFrames
30	30	6	21	m	30	48	96
Frame#	Time	CHip			RHip			RKnee			RAnkle			RBigToe			RSmallToe			RHeel			LHip			LKnee			LAnkle			LBigToe			LSmallToe			LHeel			Neck			Nose			RShoulder			RElbow			RWrist			LShoulder			LElbow			LWrist			
		X1	Y1	Z1	X2	Y2	Z2	X3	Y3	Z3	X4	Y4	Z4	X5	Y5	Z5	X6	Y6	Z6	X7	Y7	Z7	X8	Y8	Z8	X9	Y9	Z9	X10	Y10	Z10	X11	Y11	Z11	X12	Y12	Z12	X13	Y13	Z13	X14	Y14	Z14	X15	Y15	Z15	X16	Y16	Z16	X17	Y17	Z17	X18	Y18	Z18	X19	Y19	Z19	X20	Y20	Z20	X21	Y21	Z21	
48	1.6	-0.22326244734471698	1.8329661281653644	-0.451162571553562	-0.23218629894058768	1.8324723659259725	-0.3865470542693033	-0.22416896308324785	1.7044742210681239	-0.3865645669829765	-0.21808199098923656	1.5804430161588159	-0.3786403177091911	-0.22659267255163043	1.6618969597063291	-0.3779899336703998	-0.22185050449105623	1.6668615101750466	-0.35587354616372224	-0.21502326754327541	1.571069958102009	-0.38996105757927246	-0.21597637722920865	1.8347546780033093	-0.5168454244297203	-0.2133508917964133	1.706698663867128	-0.4900763421628478	-0.2102930099223528	1.5755838172563144	-0.473789870943354	-0.2382659662613792	1.5414337640695956	-0.44496478883018886	-0.23311256966155233	1.542560170961143	-0.47727460431684166	-0.2010744685921734	1.5676913517656903	-0.47343555752263755	-0.21324764442786637	1.9895174624555274	-0.4844832559201727	-0.23146900450051325	2.054786162046107	-0.4752242429891743	-0.22333906655935357	1.9862637336897544	-0.38945227377015257	-0.22726600066106364	1.9009117160068991	-0.3472906459737646	-0.24015995254458103	1.829779697983081	-0.3157852246874214	-0.19859501014421224	1.993862762207906	-0.5812575227177721	-0.19270428447173876	1.910986677837202	-0.5984803131225707	-0.20721521474044594	1.8321589745615365	-0.5820442044580989
49	1.6333333333333333	-0.22320828115277455	1.8356676342652232	-0.45162786344087114	-0.2314273843677212	1.8341339412589537	-0.3922410550476493	-0.2260778739798229	1.707358780765741	-0.38481851160806296	-0.21920829729771713	1.5800050993595975	-0.3772461008889408	-0.22659267255163043	1.6618969597063291	-0.3779899336703998	-0.22185050449105623	1.6668615101750466	-0.35587354616372224	-0.21489643083293095	1.5699847614215663	-0.3900770552248357	-0.21515446514096778	1.8361317809450932	-0.5138230708544247	-0.21499695975938718	1.7090342808712535	-0.48858657962516483	-0.21028670709502487	1.575677553243638	-0.47376218097936634	-0.2381216348380772	1.5432083506222805	-0.4456991198666087	-0.23327223699405347	1.5439757721090803	-0.4771449115908042	-0.19990767410191568	1.5668292984431187	-0.47036883175843686	-0.21323672700346277	1.9906380701040602	-0.4845334878381615	-0.23158054845907458	2.0549114948852045	-0.4751016505771333	-0.22620104949757805	1.9863472746421273	-0.39053271296319425	-0.22318198094826935	1.904447387065804	-0.35202294216633145	-0.2429621335480177	1.8340066666969548	-0.3122193349053708	-0.2006189073871973	1.9938567445364348	-0.5791884823448286	-0.18633366405510923	1.911446915592514	-0.6053778678403028	-0.20800575547095118	1.8337036047328816	-0.5853563226849294
50	1.6666666666666667	-0.2235078437101864	1.835829606643049	-0.45141779176557323	-0.23127130172571092	1.8339252879385928	-0.38334882893150185	-0.23015567454099667	1.7051789825447388	-0.3800725567799283	-0.2203346036061977	1.5795671825603792	-0.37585188406869047	-0.22659267255163043	1.6618969597063291	-0.3779899336703998	-0.22185050449105623	1.6668615101750466	-0.35587354616372224	-0.21493772595716043	1.5702035938828662	-0.3900809928331383	-0.21722586882386072	1.8373609937264566	-0.5118185853596774	-0.22325487095870974	1.7099744059782864	-0.4796316642027501	-0.21121248423139274	1.5756488215265259	-0.4770889086872012	-0.23796241241899732	1.5423913629672523	-0.44555304624509945	-0.23300230410846864	1.5448773200618635	-0.4776178461260554	-0.1990825889122759	1.568145312820573	-0.47567831807869154	-0.21531866431861332	1.9894514474965959	-0.48216313529923815	-0.23729478941045132	2.0571753644447712	-0.4692035750823764	-0.22713398923739295	1.9860744762902574	-0.3851574730476418	-0.21906550425953839	1.9093232632985715	-0.3486886411988898	-0.2399273689444494	1.848153153459583	-0.3165009153825546	-0.20265876223612994	1.9937387330878864	-0.5768903346185961	-0.1806460174479175	1.9145166604687494	-0.6158251296362921	-0.20534427872849123	1.8438721573292542	-0.5891946115553921
51	1.7	-0.2238063407618757	1.833300871098146	-0.4510519330017521	-0.23196712767520397	1.832631913487838	-0.38314314384662074	-0.23932785101333723	1.704133784880479	-0.37397259697550167	-0.22047950792279714	1.5798599538739642	-0.37576099168887145	-0.22659267255163043	1.6618969597063291	-0.3779899336703998	-0.22185050449105623	1.6668615101750466	-0.35587354616372224	-0.21492924046397122	1.5724051041427247	-0.39059666971824647	-0.21665773060745344	1.8336527407251149	-0.5166121680220888	-0.23088000209897502	1.7072929613367414	-0.46659501916755636	-0.20922314726451594	1.5756419851044352	-0.4792396376305757	-0.2358093147098079	1.541886810687475	-0.44764752611686165	-0.23059986705655658	1.5430682605043702	-0.4800606170329812	-0.1990211462491598	1.568187843891527	-0.47583963029528636	-0.21966856352534037	1.9864677574701948	-0.4782376814660781	-0.2413805773443119	2.056440628063561	-0.46559809994981416	-0.22953831035629219	1.9829898343045316	-0.38331054859637564	-0.21701797925605984	1.9102519952681176	-0.34829189300780383	-0.23824283184286246	1.865786355025094	-0.3126264973005324	-0.20516456059378077	1.9914071233869264	-0.5751198543109717	-0.1786191459635182	1.9198251001130933	-0.6192479193972084	-0.20137164498227014	1.8559150667065456	-0.5986715223861817
52	1.7333333333333334	-0.22631853502649818	1.8241478299778686	-0.44723770395728746	-0.2342062145684524	1.8209218671564595	-0.3788828333676204	-0.2473543152262295	1.6971354335301747	-0.363927459692674	-0.22057637588983003	1.5782767287996577	-0.37530278029871433	-0.22659267255163043	1.6618969597063291	-0.3779899336703998	-0.22185050449105623	1.6668615101750466	-0.35587354616372224	-0.21328067286430966	1.5699696138865082	-0.38743082347567187	-0.2161938195801165	1.8256626301782743	-0.5120756186449367	-0.24165000028545747	1.6998822820582018	-0.4536528176510951	-0.21113152409603755	1.5748341648320578	-0.47700371311835305	-0.2380657552657313	1.5383470523993439	-0.4440105666609512	-0.23311113455696209	1.5403929243598178	-0.4763745255543751	-0.1997772363111597	1.566524475114014	-0.4793354608862485	-0.22218832972296385	1.980928289385979	-0.4760179064996395	-0.24376727277260132	2.050937677192903	-0.46388439632494577	-0.23195963796544178	1.9777066366103782	-0.3809746999826617	-0.21780628739697122	1.9127582216838976	-0.349540087342252	-0.23488216345433122	1.8822782241385325	-0.3089293159812945	-0.2060844695607044	1.9843875284231764	-0.5755551048718784	-0.18075274737313676	1.9189484507433787	-0.6141891492199568	-0.20941835019188215	1.8654587699039715	-0.5965261971855342
53	1.7666666666666666	-0.22652039685863903	1.8124579463630077	-0.4451508364529806	-0.23528505963089577	1.8118038648795494	-0.38048771182598995	-0.2561276378991279	1.6848795763421591	-0.3479412690796703	-0.2183701619863446	1.5768256354133112	-0.37780073257622504	-0.22659267255163043	1.6618969597063291	-0.3779899336703998	-0.22185050449105623	1.6668615101750466	-0.35587354616372224	-0.21184175511791734	1.5673616444603904	-0.39320787808011104	-0.21852731338991965	1.8125582192026375	-0.5076507661654419	-0.2510324415633441	1.6896358500617958	-0.44666101341879083	-0.21340842657957027	1.5701992473894189	-0.4739718868132699	-0.2356452118916216	1.5359120214169788	-0.446423454315705	-0.23281111423217296	1.5385595600364241	-0.47671438924385834	-0.20152780715477958	1.5645484352844539	-0.4773695002239257	-0.22287902375802215	1.9698284521114624	-0.47449899243340626	-0.2443473061105689	2.0405092429279352	-0.4623930968749807	-0.23347174986739508	1.9672516854561461	-0.38243743477598013	-0.2175724754626366	1.8921360351110175	-0.3511599971448817	-0.23714130288539026	1.873866567917138	-0.3200838475095595	-0.21172950773090074	1.9734332574944262	-0.5727823004532142	-0.19027984501185688	1.9048319719821623	-0.6032749866555159	-0.2289287150168624	1.871828807924145	-0.5771788371005152
